<?xml version="1.0" encoding="utf-8" ?><svg xmlns="http://www.w3.org/2000/svg" xmlns:xlink="http://www.w3.org/1999/xlink" width="1024" height="1024" viewBox="0 0 1024 1024"><path fill="white" d="M0 0L1024 0L1024 1024L0 1024L0 0Z"/><path fill="#2C63EE" d="M520.646 757.273C522.097 758.249 525.282 761.344 527.826 763.122C537.686 770.012 549.467 771.96 561.283 773.128C585.037 775.474 609.283 775.84 633.144 776.116C666.266 776.451 699.391 776.322 732.509 775.73C751.574 775.463 770.631 774.767 789.665 773.643C806.36 772.715 822.069 773.918 835.501 763.062L835.558 819.917L787.388 819.903C771.78 819.903 755.243 817.421 742.976 828.795C735.371 835.846 731.414 844.437 731.313 854.821C731.202 864.572 735.041 873.952 741.957 880.826C750.858 889.764 759.632 890.56 771.439 890.637L835.511 890.999C835.605 905.717 838.47 923.41 827.722 934.69C817.71 945.197 803.895 942.999 790.642 942.992L755.575 942.956L652.143 942.982L581.676 943.008C572.436 943.014 563.143 943.057 553.926 943.008C544.254 942.956 537.759 942.659 530.153 935.845C519.118 925.957 520.474 914.98 520.526 901.641L520.634 873.849L520.663 805.101C520.705 789.416 521.039 772.898 520.646 757.273Z"/><path fill="#F8BB39" d="M584.374 697.688C602.181 690.476 626.273 682.908 644.747 676.493L772.605 632.356C775.613 639.095 777.764 646.489 780.28 653.451C785.649 668.307 790.417 683.512 796.094 698.245C810.114 701.239 810.507 709.797 810.527 721.863C831.237 724.17 835.645 738.489 835.458 756.345C826.86 765.356 823.074 765.979 810.849 767.138C807.013 767.529 802.32 768.004 798.463 768.009C753.613 770.801 705.223 771.106 660.056 770.998C628.67 770.923 585.954 771.089 555.368 767.313C551.925 766.868 546.628 766.035 543.391 765.196C535.499 762.32 522.547 757.199 520.948 747.632C519.606 739.598 525.368 730.82 531.878 726.537C535.926 723.874 538.593 722.889 543.301 722.237C543.172 697.524 551.982 697.555 573.717 698.381C576.704 698.495 581.459 698.27 584.374 697.688Z"/><path fill="#E45542" d="M555.368 767.313C555.484 762.651 555.507 757.987 555.438 753.325C555.336 743.887 554.399 736.912 561.959 729.679C564.154 727.579 567.21 725.149 570.291 724.969C578.647 724.478 587.769 724.782 596.127 724.847L644.391 724.998L733.1 725.048C748.945 725.035 764.797 724.913 780.637 725.086C786.16 725.147 789.799 727.41 793.517 731.333C799.142 737.267 798.215 745.784 798.311 753.272C798.374 758.253 798.331 763.096 798.463 768.009C753.613 770.801 705.223 771.106 660.056 770.998C628.67 770.923 585.954 771.089 555.368 767.313Z"/><path fill="#F8815E" d="M584.109 738.171C590.48 736.733 596.822 740.688 598.334 747.041C599.845 753.395 595.965 759.782 589.629 761.368C585.465 762.41 581.062 761.133 578.101 758.025C575.14 754.917 574.079 750.457 575.322 746.348C576.566 742.239 579.922 739.116 584.109 738.171Z"/><path fill="#F8815E" d="M611.728 738.408C617.962 736.853 624.287 740.603 625.915 746.819C627.542 753.035 623.866 759.403 617.67 761.103C613.597 762.221 609.237 761.062 606.256 758.07C603.275 755.078 602.132 750.714 603.265 746.645C604.397 742.576 607.63 739.43 611.728 738.408Z"/><path fill="#5CB072" d="M584.374 697.688C602.181 690.476 626.273 682.908 644.747 676.493L772.605 632.356C775.613 639.095 777.764 646.489 780.28 653.451C785.649 668.307 790.417 683.512 796.094 698.245C790.989 697.955 783.939 698.109 778.726 698.087L772.06 698.183C749.921 697.51 725.613 698.204 703.145 697.989L697.34 697.964C675.059 698.709 648.474 697.992 625.848 698.002L600.07 698.064C595.667 698.075 588.583 698.283 584.374 697.688Z"/><path fill="#5CB072" d="M703.145 697.989C704.978 688.21 709.799 679.984 718.106 674.282C725.56 669.146 734.746 667.171 743.653 668.789C760.409 671.939 767.766 682.824 772.06 698.183C749.921 697.51 725.613 698.204 703.145 697.989Z"/><path fill="white" d="M697.34 697.964C699.47 685.814 703.944 676.592 714.342 669.329C723.138 663.142 734.044 660.734 744.627 662.643C755.506 664.615 765.146 670.851 771.405 679.966C775.265 685.592 777.329 691.449 778.726 698.087L772.06 698.183C767.766 682.824 760.409 671.939 743.653 668.789C734.746 667.171 725.56 669.146 718.106 674.282C709.799 679.984 704.978 688.21 703.145 697.989L697.34 697.964Z"/><path fill="#2C63EE" d="M810.527 721.863C831.237 724.17 835.645 738.489 835.458 756.345C826.86 765.356 823.074 765.979 810.849 767.138C810.939 752.181 810.533 736.914 810.527 721.863Z"/><path fill="#2C63EE" d="M543.391 765.196C535.499 762.32 522.547 757.199 520.948 747.632C519.606 739.598 525.368 730.82 531.878 726.537C535.926 723.874 538.593 722.889 543.301 722.237C543.033 736.362 543.299 751.027 543.391 765.196Z"/><path fill="#2C63EE" d="M559.555 403.318C560.573 404.286 561.623 405.22 562.703 406.119C574.053 415.584 588.206 415.742 602.273 416.777C620.834 418.014 639.432 418.604 658.034 418.546C696.49 418.746 735.499 418.897 773.817 415.452C782.272 414.692 788.962 414.449 794.485 407.766L794.44 449.541C777.675 449.858 760.756 449.176 743.988 449.745C737.515 449.964 731.063 451.673 726.045 455.984C720.802 460.558 717.685 467.099 717.436 474.053C717.168 480.955 719.709 487.671 724.48 492.667C730.903 499.458 736.834 500.507 745.418 500.772L794.506 500.857C794.711 519.822 797.711 539.824 771.329 539.92C728.454 540.076 685.573 540.014 642.698 540L602.663 539.976C591.339 539.965 574.544 541.915 566.124 533.407C562.835 530.092 560.672 525.826 559.942 521.213C559.287 517.324 559.477 510.941 559.486 506.87L559.552 483.603L559.555 403.318Z"/><path fill="#F8BB39" d="M612.294 359.671C624.621 354.297 642.06 349.06 655.024 344.446C686.367 333.115 717.774 321.961 749.243 310.986C752.738 320.599 756.145 330.245 759.462 339.922C761.341 345.44 764.282 354.925 766.621 359.885C776.051 361.303 778.134 367.953 778.001 376.325C792.556 381.659 794.533 388.589 794.425 403.206C788.067 409.319 786.973 410.054 777.985 411.23C774.776 411.593 771.572 411.992 768.372 412.427C756.341 412.681 743.958 414.22 731.87 414.279C683.388 414.514 634.111 416.359 585.839 411.787C582.68 411.201 579.272 410.406 576.106 409.734C567.502 406.08 555.71 399.516 561.215 387.636C564.128 381.348 569.837 378.318 576.177 376.125C575.939 354.666 596.667 359.791 612.294 359.671Z"/><path fill="#E45542" d="M585.839 411.787C586.037 399.517 582.768 381.535 600.059 380.731C608.54 380.337 616.991 380.512 625.479 380.531L674.91 380.672L726.335 380.707C736.609 380.7 747.405 380.306 757.582 381.325C771.558 382.726 767.61 402.43 768.372 412.427C756.341 412.681 743.958 414.22 731.87 414.279C683.388 414.514 634.111 416.359 585.839 411.787Z"/><path fill="#F8815E" d="M606.613 390.922C611.596 389.507 616.781 392.401 618.194 397.384C619.606 402.367 616.71 407.551 611.726 408.961C606.746 410.37 601.566 407.476 600.154 402.497C598.743 397.517 601.634 392.336 606.613 390.922Z"/><path fill="#F8815E" d="M628.375 390.832C631.567 389.903 635.012 390.763 637.393 393.083C639.773 395.403 640.722 398.825 639.876 402.04C639.029 405.254 636.519 407.765 633.304 408.612C628.421 409.899 623.411 407.021 622.062 402.155C620.714 397.289 623.527 392.243 628.375 390.832Z"/><path fill="#5CB072" d="M612.294 359.671C624.621 354.297 642.06 349.06 655.024 344.446C686.367 333.115 717.774 321.961 749.243 310.986C752.738 320.599 756.145 330.245 759.462 339.922C761.341 345.44 764.282 354.925 766.621 359.885C762.827 360.086 757.728 359.914 753.838 359.897L748.898 359.893C738.158 359.794 727.417 359.779 716.677 359.848C711.671 359.863 704.275 360.091 699.486 359.688C697.864 359.605 696.458 359.711 694.839 359.782C692.32 360.114 685.249 359.961 682.383 359.962L657.955 359.957L629.33 359.972C624.465 359.978 616.959 360.205 612.294 359.671Z"/><path fill="#5CB072" d="M699.486 359.688C700.934 351.733 703.068 345.562 710.189 340.635C715.52 336.996 722.08 335.628 728.421 336.832C734.739 338.005 740.317 341.679 743.89 347.02C746.461 350.798 748.133 355.399 748.898 359.893C738.158 359.794 727.417 359.779 716.677 359.848C711.671 359.863 704.275 360.091 699.486 359.688Z"/><path fill="white" d="M694.839 359.782C695.604 351.157 698.385 344.269 705.247 338.583C711.243 333.584 719.011 331.233 726.773 332.068C734.784 332.919 742.1 337.005 747.026 343.38C750.927 348.428 752.719 353.687 753.838 359.897L748.898 359.893C748.133 355.399 746.461 350.798 743.89 347.02C740.317 341.679 734.739 338.005 728.421 336.832C722.08 335.628 715.52 336.996 710.189 340.635C703.068 345.562 700.934 351.733 699.486 359.688C697.864 359.605 696.458 359.711 694.839 359.782Z"/><path fill="#2C63EE" d="M778.001 376.325C792.556 381.659 794.533 388.589 794.425 403.206C788.067 409.319 786.973 410.054 777.985 411.23L778.001 376.325Z"/><path fill="#2C63EE" d="M576.177 376.125C576.179 387.144 576.348 398.771 576.106 409.734C567.502 406.08 555.71 399.516 561.215 387.636C564.128 381.348 569.837 378.318 576.177 376.125Z"/><path fill="#2C63EE" d="M174.03 832.207C181.692 836.571 181.482 838.959 192.243 840.33C219.922 843.854 248.119 843.077 275.987 842.913C290.608 842.883 305.227 842.519 319.831 841.822C328.216 841.417 337.229 840.984 345.483 839.317C348.45 838.718 351.211 836.718 353.618 834.943L353.684 868.812L326.428 868.588C321.254 868.567 312.28 868.299 307.461 869.275C303.885 870.002 300.549 871.617 297.761 873.972C293.625 877.484 291.132 882.557 290.879 887.977C290.093 902.169 300.373 909.78 313.624 910.144C326.618 910.452 340.6 910.197 353.66 910.14C353.75 918.483 355.129 929.359 349.066 935.843C345.445 939.714 341.714 941.23 336.445 941.305C325.385 941.462 314.325 941.44 303.265 941.402L243.423 941.173L208.244 941.192C196.533 941.194 176.398 943.889 174.584 927.327C173.45 916.978 173.977 905.577 173.988 895.096L174.03 832.207Z"/><path fill="#2C63EE" d="M597.327 104.268C600.002 109.72 606.083 111.808 611.792 112.551C623.003 114.008 634.658 114.247 645.978 114.496C667.402 115.04 688.838 114.953 710.257 114.235C720.538 113.903 731.866 113.787 742.022 111.999C745.74 111.345 748.862 108.903 751.886 106.717C751.823 116.532 751.847 126.347 751.959 136.162C742.074 135.746 731.969 135.966 722.079 135.512C711.571 135.029 701.07 138.238 699.021 150.038C698.207 154.779 699.308 159.648 702.082 163.577C705.644 168.623 709.679 170.059 715.374 170.995C727.252 171.562 739.645 171.401 751.57 171.43C751.8 189.021 751.534 197.34 731.186 197.367C704.483 197.403 677.74 197.425 651.034 197.401L624.613 197.301C614.237 197.222 597.465 198.488 597.527 183.165C597.634 157.008 596.791 130.387 597.327 104.268Z"/><path fill="#2C63EE" d="M197.583 455.385C200.596 459.654 203.502 461.71 208.732 462.746C228.44 466.649 309.043 466.406 328.927 463.036C333.141 462.322 336.465 461.266 340.032 458.881C340.619 464.773 340.161 477.744 340.079 484.134C333.025 484.205 306.942 483.72 301.824 484.842C299.64 485.333 297.576 486.253 295.751 487.548C292.26 490.036 289.948 493.852 289.359 498.098C287.76 508.848 294.305 516.691 304.875 517.974L339.878 517.984C339.8 520.427 339.704 523.407 339.711 525.806C339.754 543.076 327.526 542.119 315.98 542.117L292.477 542.079C266.988 542.033 241.481 542.077 215.992 541.982C209.987 541.959 205.504 541.695 201.103 537.063C199.219 535.307 198.002 531.904 197.781 529.369C197.04 520.881 197.266 511.536 197.349 503.036C197.504 487.166 197.124 471.215 197.583 455.385Z"/><path fill="#F8BB39" d="M214.879 797.057C248.743 783.513 284.169 773.196 318.033 760.428C322.279 772.119 326.483 786.242 331.137 797.47C341.781 797.414 338.9 803.514 340.313 809.959C350.645 814.7 354.124 819.859 353.621 831.391C348.783 835.489 346.466 836.473 340.247 837.418C338.062 837.636 335.627 837.938 333.459 838.07C312.148 839.92 285.077 839.653 263.573 839.752C242.159 839.85 214.847 840.263 193.995 837.501C192.148 837.216 189.818 836.675 187.941 836.298C186.237 835.66 184.014 834.995 182.447 834.172C167.37 826.255 174.951 814.241 187.976 810.831C187.96 810.343 187.952 809.855 187.951 809.367C187.951 793.422 203.389 797.054 214.879 797.057Z"/><path fill="#E45542" d="M194.394 819.709C195.934 817.274 199.248 813.469 202.107 813.102C208.648 812.263 216.957 812.569 223.541 812.587L265.701 812.69L302.973 812.73C309.455 812.713 316.492 812.403 322.926 812.776C336.325 813.555 333.183 829.349 333.459 838.07C312.148 839.92 285.077 839.653 263.573 839.752C242.159 839.85 214.847 840.263 193.995 837.501C194.17 831.616 194.426 825.584 194.394 819.709Z"/><path fill="#F8815E" d="M211.023 820.872C214.89 820.234 218.537 822.865 219.15 826.736C219.763 830.607 217.107 834.237 213.232 834.825C209.393 835.407 205.804 832.781 205.196 828.946C204.589 825.111 207.191 821.504 211.023 820.872Z"/><path fill="#F8815E" d="M225.81 821.434C228.083 820.357 230.76 820.587 232.817 822.035C234.873 823.483 235.992 825.926 235.744 828.429C235.496 830.932 233.921 833.108 231.62 834.125C228.127 835.669 224.042 834.119 222.452 830.647C220.863 827.174 222.359 823.069 225.81 821.434Z"/><path fill="#5CB072" d="M214.879 797.057C248.743 783.513 284.169 773.196 318.033 760.428C322.279 772.119 326.483 786.242 331.137 797.47C328.014 797.533 324.89 797.514 321.768 797.411L318.042 797.57C310.22 798.165 287.199 797.962 279.045 797.487L275.795 797.477L236.958 797.458C231.368 797.459 220.086 797.777 214.879 797.057Z"/><path fill="#5CB072" d="M279.045 797.487C279.867 794.767 280.43 792.701 281.815 790.158C289.589 775.882 308.624 776.433 315.526 791.139C316.476 793.164 317.252 795.425 318.042 797.57C310.22 798.165 287.199 797.962 279.045 797.487Z"/><path fill="white" d="M275.795 797.477C277.359 784.514 288.582 774.826 301.746 776.758C308.005 777.723 313.601 781.194 317.246 786.374C319.51 789.534 321.031 793.597 321.768 797.411L318.042 797.57C317.252 795.425 316.476 793.164 315.526 791.139C308.624 776.433 289.589 775.882 281.815 790.158C280.43 792.701 279.867 794.767 279.045 797.487L275.795 797.477Z"/><path fill="#2C63EE" d="M340.313 809.959C350.645 814.7 354.124 819.859 353.621 831.391C348.783 835.489 346.466 836.473 340.247 837.418C340.356 828.265 340.378 819.112 340.313 809.959Z"/><path fill="#2C63EE" d="M187.941 836.298C186.237 835.66 184.014 834.995 182.447 834.172C167.37 826.255 174.951 814.241 187.976 810.831L187.941 836.298Z"/><path fill="#F8BB39" d="M631.368 75.1908C657.11 64.8405 684.158 56.7168 710.127 46.9188C713.773 45.5432 717.483 44.2658 721.186 43.0499C725.132 53.4669 728.518 66.1896 732.372 75.6434C737.959 76.3042 740.583 78.9916 740.401 84.7927C749.297 88.8296 751.784 93.1743 751.697 102.656C747.52 106.916 746 108.565 740.079 110.206C738.171 110.421 736.622 110.572 734.705 110.661C730.889 110.966 726.91 111.071 723.076 111.191C687.247 112.313 650.453 112.854 614.697 110.518C612.106 110.362 611.177 110.147 608.64 109.526C604.782 107.8 600.707 105.984 598.552 102.121C597.414 100.112 597.17 97.7188 597.878 95.5211C599.411 90.6542 604.3 88.1809 608.524 86.1609C607.263 71.6583 622.066 76.3055 631.368 75.1908Z"/><path fill="#E45542" d="M614.697 110.518C614.608 105.297 613.545 94.9203 617.137 91.0391C619.05 88.9716 628.016 88.8327 630.979 88.8463C662.802 88.9933 694.707 88.7697 726.511 89.5708C728.136 89.6117 730.694 89.9926 731.712 91.2541C736.146 95.9563 734.419 104.547 734.705 110.661C730.889 110.966 726.91 111.071 723.076 111.191C687.247 112.313 650.453 112.854 614.697 110.518Z"/><path fill="#F8815E" d="M628.868 95.118C632.178 94.6487 635.251 96.921 635.773 100.222C636.294 103.524 634.071 106.633 630.778 107.207C628.601 107.586 626.389 106.762 624.991 105.052C623.592 103.342 623.223 101.01 624.027 98.9518C624.83 96.8936 626.681 95.4282 628.868 95.118Z"/><path fill="#F8815E" d="M643.047 95.7128C646.123 94.9786 649.212 96.8747 649.949 99.9496C650.687 103.025 648.795 106.116 645.72 106.857C642.641 107.599 639.544 105.703 638.805 102.623C638.066 99.5434 639.966 96.4482 643.047 95.7128Z"/><path fill="#5CB072" d="M631.368 75.1908C657.11 64.8405 684.158 56.7168 710.127 46.9188C713.773 45.5432 717.483 44.2658 721.186 43.0499C725.132 53.4669 728.518 66.1896 732.372 75.6434C730.22 76.0788 727.154 75.8516 724.951 75.6732L720.912 75.6694C716.501 76.2975 692.97 75.8886 687.619 75.7081L684.12 75.849C672.162 75.1698 659.25 75.8641 647.234 75.6104C642.729 75.5153 635.592 75.994 631.368 75.1908Z"/><path fill="#5CB072" d="M687.619 75.7081C688.628 70.3842 690.191 66.2057 695.04 63.0362C698.776 60.6373 703.337 59.8877 707.644 60.9648C714.836 62.7357 719.342 68.681 720.912 75.6694C716.501 76.2975 692.97 75.8886 687.619 75.7081Z"/><path fill="white" d="M684.12 75.849C689.548 51.057 717.029 50.9051 724.951 75.6732L720.912 75.6694C719.342 68.681 714.836 62.7357 707.644 60.9648C703.337 59.8877 698.776 60.6373 695.04 63.0362C690.191 66.2057 688.628 70.3842 687.619 75.7081L684.12 75.849Z"/><path fill="#2C63EE" d="M740.401 84.7927C749.297 88.8296 751.784 93.1743 751.697 102.656C747.52 106.916 746 108.565 740.079 110.206C740.275 101.766 739.891 93.2604 740.401 84.7927Z"/><path fill="#2C63EE" d="M608.524 86.1609C608.628 93.9486 608.667 101.737 608.64 109.526C604.782 107.8 600.707 105.984 598.552 102.121C597.414 100.112 597.17 97.7188 597.878 95.5211C599.411 90.6542 604.3 88.1809 608.524 86.1609Z"/><path fill="#2C63EE" d="M764.07 826.164C779.417 825.5 795.52 826.484 810.941 826.076C819.657 826.465 829.014 825.393 837.652 826.589C845.934 827.735 846.23 835.971 846.09 842.185C845.772 853.499 847.111 866.147 845.676 877.276C844.486 886.508 827.344 884.4 820.989 884.282L783.778 884.166C771.843 884.149 758.928 885.732 748.915 878.09C742.682 873.352 738.643 866.283 737.728 858.507C735.71 842.112 747.968 828.009 764.07 826.164Z"/><path fill="#F8BB39" d="M234.822 428.087C258.849 418.077 287.058 409.98 311.654 400.573C314.207 408.735 318.218 420.979 321.333 428.88C328.008 430.782 328.89 432.141 329.104 438.978C338.635 441.226 340.177 447.054 339.985 455.811C335.996 459.673 334.715 460.331 329.045 461.074L323.553 461.504C313.593 461.407 299.019 462.503 288.422 462.738C263.545 463.318 238.654 462.888 213.812 461.451C211.82 461.219 209.999 460.942 208.02 460.618C203.647 459.302 200.865 456.381 197.982 453.105C197.829 444.561 200.419 442.141 207.956 438.628C205.746 424.05 225.398 429.324 234.822 428.087Z"/><path fill="#E45542" d="M213.736 446.937C214.973 445.105 217.188 441.823 219.578 441.509C225.003 440.797 231.003 440.995 236.486 441.029C261.77 441.185 287.057 441.162 312.34 441.233C315.009 441.241 317.699 441.709 320.289 442.313C325.205 446.239 323.432 455.792 323.553 461.504C313.593 461.407 299.019 462.503 288.422 462.738C263.545 463.318 238.654 462.888 213.812 461.451L213.736 446.937Z"/><path fill="#F8815E" d="M226.363 446.986C228.385 446.436 230.547 447.017 232.02 448.508C233.492 449.999 234.047 452.168 233.471 454.183C232.896 456.198 231.279 457.747 229.241 458.235C226.157 458.975 223.049 457.101 222.263 454.028C221.477 450.955 223.302 447.819 226.363 446.986Z"/><path fill="#F8815E" d="M239.851 447.1C241.797 446.551 243.888 447.091 245.325 448.514C246.761 449.937 247.321 452.022 246.79 453.974C246.26 455.925 244.72 457.439 242.761 457.938C239.785 458.696 236.752 456.921 235.956 453.955C235.16 450.99 236.895 447.934 239.851 447.1Z"/><path fill="#5CB072" d="M234.822 428.087C258.849 418.077 287.058 409.98 311.654 400.573C314.207 408.735 318.218 420.979 321.333 428.88C319.152 428.765 316.682 428.801 314.474 428.779L311.3 428.772C301.668 428.484 291.315 428.536 281.658 428.452L278.637 428.423C268.292 428.349 244.102 429.044 234.822 428.087Z"/><path fill="#5CB072" d="M281.658 428.452C283.513 423.509 285.49 419.626 290.698 417.256C294.184 415.689 298.169 415.66 301.677 417.176C306.822 419.391 309.461 423.734 311.3 428.772C301.668 428.484 291.315 428.536 281.658 428.452Z"/><path fill="white" d="M278.637 428.423C280.269 422.67 281.912 418.732 287.698 415.672C292.184 413.304 297.451 412.906 302.242 414.573C306.908 416.217 310.708 419.681 312.778 424.174C313.473 425.658 314.04 427.199 314.474 428.779L311.3 428.772C309.461 423.734 306.822 419.391 301.677 417.176C298.169 415.66 294.184 415.689 290.698 417.256C285.49 419.626 283.513 423.509 281.658 428.452L278.637 428.423Z"/><path fill="#2C63EE" d="M329.104 438.978C338.635 441.226 340.177 447.054 339.985 455.811C335.996 459.673 334.715 460.331 329.045 461.074L329.104 438.978Z"/><path fill="#2C63EE" d="M207.956 438.628L208.02 460.618C203.647 459.302 200.865 456.381 197.982 453.105C197.829 444.561 200.419 442.141 207.956 438.628Z"/><path fill="#2C63EE" d="M743.826 454.219C751.53 454.085 794.677 452.855 798.489 455.598C800.355 456.941 801.166 460.112 801.483 462.24C802.326 467.919 803.006 490.056 799.597 493.981C796.208 497.885 784.65 496.46 779.875 496.354C771.413 496.272 762.951 496.257 754.49 496.308C749.342 496.311 743.535 496.59 738.508 495.69C729.247 494.033 722.876 486.304 722.116 477.048C721.623 471.19 723.591 465.392 727.547 461.045C732.46 455.572 737.021 454.552 743.826 454.219Z"/><path fill="#2C63EE" d="M310.621 872.135C317.906 871.903 353.369 870.507 357.546 874.54C360.27 877.17 359.035 898.258 358.992 903.014C357.678 904.423 356.356 905.31 354.814 906.462C351.567 906.68 347.271 906.55 343.935 906.538C333.727 906.456 309.37 908.442 301.692 903.511C298.006 901.144 295.622 897.432 294.849 893.135C293.944 888.078 295.198 882.873 298.305 878.782C301.723 874.316 305.383 872.933 310.621 872.135Z"/><path fill="#2C63EE" d="M241.518 162.772C250.39 167.279 277.938 165.162 289.12 165.709C289.923 165.748 294.841 164.995 296.187 164.881C296.573 167.111 296.747 168.648 296.921 170.906C297.352 173.38 297.286 173.732 297.082 176.284L298.34 176.885C298.994 179.381 299.633 183.96 297.515 185.863L295.712 186.179L296.414 187.149L296.691 187.58C296.932 190.163 297.468 193.753 295.902 196.035C294.649 197.86 292.341 198.487 290.242 198.609C283.967 198.976 277.294 198.424 270.956 198.456C263.891 198.491 254.986 199.571 248.162 198.525C246.55 198.278 244.971 197.699 243.812 196.512C239.753 192.354 241.487 169.425 241.518 162.772Z"/><path fill="#2C63EE" d="M295.712 186.179C291.862 185.777 282.484 187.381 280.576 185.499C268.986 174.067 293.985 176.203 297.082 176.284L298.34 176.885C298.994 179.381 299.633 183.96 297.515 185.863L295.712 186.179Z"/><path fill="white" d="M296.921 170.906C297.352 173.38 297.286 173.732 297.082 176.284C293.985 176.203 268.986 174.067 280.576 185.499C282.484 187.381 291.862 185.777 295.712 186.179L296.414 187.149C290.1 187.654 278.855 190.239 276.593 182.444C273.785 172.77 290.622 175.447 295.991 174.867C297.007 173.807 296.732 172.778 296.921 170.906Z"/><path fill="#2C63EE" d="M714.258 138.594C726.247 137.865 742.168 138.456 753.986 139.263C758.011 139.538 758.89 163.761 755.492 166.412C752.887 168.445 748.675 167.881 745.758 167.865C736.883 167.884 716.066 169.112 709.369 165.859C697.115 159.907 700.126 142.784 714.258 138.594Z"/><path fill="#2C63EE" d="M302.556 487.598C307.091 487.26 338.398 486.975 341.729 488.03C345.444 491.374 344.682 500.026 344.596 504.753C344.4 515.533 342.456 515.121 333.686 515.017C326.193 515.079 306.75 516.191 301.079 514.058C287.966 509.125 289.234 493.433 302.556 487.598Z"/><path fill="#F8BB39" d="M254.366 151.686C260.621 148.181 277.921 142.846 285.112 140.905C286.619 144.481 288.13 148.34 289.692 151.855C291.875 152.593 292.414 153.22 293.08 155.414C297.67 158.08 298.751 163.133 292.52 164.237L291.508 164.24C287.568 164.684 280.783 164.52 276.662 164.436C271.548 164.832 256.774 164.622 251.802 164.151L246.869 163.366C245.76 161.567 244.874 159.383 244.316 157.341C245.979 155.596 245.129 154.16 246.594 152.437C247.976 150.812 251.215 151.871 253.552 151.74L254.366 151.686Z"/><path fill="#E45542" d="M247.659 156.539C262.196 156.386 276.734 156.369 291.271 156.489L291.508 164.24C287.568 164.684 280.783 164.52 276.662 164.436C271.548 164.832 256.774 164.622 251.802 164.151L246.869 163.366L247.659 156.539Z"/><path fill="#F8815E" d="M251.802 164.151C250.982 162.237 250.992 162.34 250.969 160.266C251.884 158.802 253.884 158.392 255.44 159.017C256.525 161.341 254.17 163.755 255.824 163.869C261.613 164.27 271.168 163.658 276.662 164.436C271.548 164.832 256.774 164.622 251.802 164.151Z"/><path fill="#5CB072" d="M254.366 151.686C260.621 148.181 277.921 142.846 285.112 140.905C286.619 144.481 288.13 148.34 289.692 151.855L285.965 152.327L284.728 151.85C280.368 152.069 276.855 152.021 272.477 151.906L270.385 151.872C265.046 152.121 259.697 152.058 254.366 151.686Z"/><path fill="#5CB072" d="M272.477 151.906C276.361 144.009 280.706 144.239 284.728 151.85C280.368 152.069 276.855 152.021 272.477 151.906Z"/><path fill="white" d="M270.385 151.872C274.746 142.922 284.229 142.462 285.965 152.327L284.728 151.85C280.706 144.239 276.361 144.009 272.477 151.906L270.385 151.872Z"/><path fill="#2C63EE" d="M293.08 155.414C297.67 158.08 298.751 163.133 292.52 164.237C292.865 161.206 292.959 158.457 293.08 155.414Z"/><path d="M663.142 565.025C665.812 565.088 667.158 564.704 668.636 567.035C668.55 568.358 668.008 572 668.133 572.799C668.525 575.303 669.914 575.278 669.303 577.987C668.125 579.433 667.482 579.469 665.716 580.054C653.884 579.966 661.51 575.872 659.921 569.901C659.572 568.588 659.36 568.542 659.573 567.131C660.673 565.629 661.363 565.601 663.142 565.025Z"/><path d="M716.714 565.019C718.244 565.212 718.391 565.181 719.804 565.733C719.242 568.114 716.616 568.501 716.367 570.7C718.503 571.229 719.238 571.415 721.239 572.27C723.342 575.002 722.118 576.778 720.281 579.331C719.2 579.748 718.067 580.019 716.915 580.138C713.622 580.498 711.019 578.871 711.155 575.27C711.325 570.737 713.538 568.018 716.714 565.019Z"/><path d="M248.187 222.274L251.539 222.43L252.039 223.006C250.962 224.138 250.299 224.869 249.34 226.098C250.995 229.607 257.827 228.323 252.253 236.218C250.222 236.687 247.171 237.099 245.235 236.134C244.199 235.606 243.471 234.621 243.271 233.475C242.513 229.227 245.881 225.381 248.187 222.274Z"/><path d="M247.268 962.345C248.787 962.339 249.484 962.359 251.039 962.522C250.915 963.717 249.18 965.147 248.146 967.05C250.489 969.843 257.619 968.185 251.835 976.01C249.165 977.493 244.025 978.548 243.202 974.349C242.262 969.548 244.864 966.158 247.268 962.345Z"/><path fill="white" d="M246.59 970.719C247.113 970.188 247.887 969.988 248.601 970.201C249.316 970.413 249.855 971.002 250.004 971.732C250.152 972.463 249.886 973.216 249.311 973.69C248.483 974.373 247.265 974.288 246.54 973.496C245.815 972.705 245.837 971.484 246.59 970.719Z"/><path d="M300.702 962.135C301.969 962.252 303.391 962.175 304.679 962.155C303.664 963.627 301.935 965.788 301.574 967.434C306.037 970.154 309.556 970.375 304.733 976.532C301.816 977.687 296.649 978.318 296.109 973.929C295.544 969.341 298.319 965.733 300.702 962.135Z"/><path fill="white" d="M300.179 970.321C300.875 969.971 301.706 970.028 302.347 970.471C302.988 970.913 303.336 971.671 303.255 972.445C303.174 973.22 302.676 973.889 301.957 974.189C300.899 974.631 299.681 974.155 299.202 973.113C298.722 972.071 299.154 970.837 300.179 970.321Z"/><path d="M300.942 221.948C302.253 221.961 303.204 222.022 304.497 222.123L304.588 222.699C304.225 223.104 303.409 224.118 303.117 224.4C300.204 227.214 306.749 227.907 306.878 231.227C306.963 233.407 306.181 234.641 304.587 236.299C301.857 237.012 296.962 237.518 296.349 233.523C295.677 229.148 298.643 225.393 300.942 221.948Z"/><path d="M652.029 565.077C653.241 565.081 653.848 565.164 655.056 565.322C656.025 567.448 655.14 570.434 655.836 572.976C656.738 576.268 657.115 575.479 656.243 578.394C654.226 580.14 655.236 579.706 652.34 579.778C651.611 574.695 648.781 578.62 645.989 575.46C646.046 572.282 649.97 567.834 652.029 565.077Z"/><path d="M703.425 565.519C704.744 565.459 705.92 565.491 707.234 565.519C708.763 568.542 705.553 572.593 709.181 574.944L709.388 575.917C708.182 577.861 707.5 580.227 705.219 580.022L704.85 579.151L704.212 578C702.12 576.421 699.156 578.287 697.572 575.909C697.787 574.236 702.292 567.394 703.425 565.519Z"/><path d="M711.273 221.547C713.998 221.446 716.294 222.051 717.48 224.597C717.475 228.037 714.856 230.312 712.558 233.055C713.247 234.081 714.684 232.781 717.134 233.799C717.674 235.235 717.527 234.492 717.248 236.105C715.769 236.717 712.159 236.495 710.375 236.484C708.619 236.516 708.158 236.676 706.714 235.667C705.947 231.844 713.13 229.662 713.585 225.831C711.452 223.981 710.318 226.668 706.745 225.622L706.692 224.462C708.187 222.132 708.573 222.209 711.273 221.547Z"/><path d="M299.979 567.318C301.906 567.365 302.667 567.054 304.089 567.904C304.967 572.242 306.222 577.559 303.462 581.348L301.376 581.546C301.114 580.244 301.198 580.144 300.463 579.074C298.513 578.172 295.221 578.28 292.96 578.044C294.964 574.687 297.794 570.675 299.979 567.318Z"/><path d="M700.758 962.433C703.228 962.342 707.356 961.929 709.385 963.111C709.366 966.008 705.562 964.679 703.744 966.508C709.081 969.14 713.331 971.166 707.229 977.031C704.587 977.573 700.946 977.963 699.301 975.182C701.412 973.585 704.435 974.624 706.215 972.041L705.735 970.677C704.146 969.593 704.549 970.066 701.897 970.411L700.984 969.627C700.105 967.27 700.554 965.004 700.758 962.433Z"/><path d="M665.297 962.084C666.852 962.234 668.33 962.349 669.538 963.485C670.373 964.285 670.785 965.431 670.65 966.58C670.26 970.122 667.519 972.05 665.021 974.038C667.251 974.068 669.324 973.856 670.95 975.451C668.98 977.615 664.125 977.103 661.375 977.008C660.885 976.986 660.344 976.775 659.843 976.628C658.686 973.631 665.914 970.946 667.515 966.274L667.046 965.65C665.441 965.438 663.814 966.064 662.204 966.499C660.375 965.832 660.992 966.401 660.027 965.067C660.854 963.044 663.402 962.554 665.297 962.084Z"/><path d="M657.418 221.517C669.282 220.614 664.939 228.346 659.234 233.431C661.834 233.402 663.399 232.834 664.962 235.003L664.457 235.842C662.656 236.914 661.048 236.569 658.875 236.479C657.06 236.489 655.904 236.717 654.417 235.734C653.487 232.163 661.046 229.931 661.451 225.808C659.693 223.367 659.887 226.385 655.725 225.684L655.229 224.818C655.836 222.635 655.637 223.319 657.418 221.517Z"/><path d="M729.34 962.032C740.919 963.055 735.545 969.491 730.305 974.222C732.549 974.103 734.55 973.515 735.988 975.394L735.344 976.326C733.362 977.548 731.31 977.196 728.875 977.166C727.339 977.235 726.842 977.451 725.586 976.631L725.366 975.546C726.975 972.186 732.973 968.912 732.729 965.805C729.645 964.451 728.755 966.801 725.664 965.675L725.662 964.818C726.913 962.953 727.18 962.965 729.34 962.032Z"/><path d="M643.524 221.69C644.988 221.518 646.464 221.46 647.937 221.518C649.998 221.607 650.536 221.867 651.744 223.183C651.987 225.359 650.73 226.039 650.179 228.655L652.39 231.493C652.714 233.316 652.703 233.183 651.985 234.899C649.093 237.789 644.436 237.019 641.391 234.714C642.092 233.58 642.006 233.531 643.127 232.863L644.107 233.03C645.791 233.305 647.15 233.56 648.438 232.624L648.278 231.324C646.054 229.325 647.395 231.532 644.663 230.04C644.415 228.402 644.287 229.143 644.935 227.722C647.165 227.344 648.229 227.623 648.372 225.272C645.962 223.679 644.507 225.739 642.317 223.852C642.532 222.396 642.391 223.068 643.524 221.69Z"/><path d="M635.37 962.456C638.89 962.406 640.332 962.368 643.834 962.901L644.216 963.424C642.742 965.121 640.091 965.176 638.77 966.869C644.129 970.005 647.607 970.727 641.853 976.72C639.061 977.535 635.863 978.029 633.862 975.246C636.083 973.679 639.735 974.68 641.249 972.145L640.793 971.119C639.321 970.05 637.156 970.229 635.247 970.142L635.37 962.456Z"/><path d="M245.123 567.615C257.252 566.14 254.193 573.335 247.723 578.937C249.987 578.942 252.734 578.485 253.543 581C252.033 582.128 252.384 581.764 250.125 581.879C248.047 581.914 244.746 582.165 243.085 581.274C243.032 577.799 250.121 574.47 249.877 571.022L248.864 570.548C247.136 570.923 245.153 571.619 243.764 570.417C243.909 568.727 243.917 569.202 245.123 567.615Z"/><path d="M285.824 567.052C288.068 566.981 290.565 567.106 292.331 568.63C294.355 573.583 288.45 575.49 287.646 578.403C289.927 578.453 292.075 577.912 292.824 580.232L292.329 581.171C290.987 581.79 287.074 581.553 285.375 581.541C283.834 581.595 283.864 581.706 282.53 580.997C281.403 577.001 290.332 574.484 289.139 570.572L287.999 570.003C285.915 570.704 284.719 571.413 282.952 570.764L282.726 570.068C283.125 568.236 283.639 568.496 285.824 567.052Z"/><path d="M698.096 221.57C698.733 221.552 699.371 221.551 700.008 221.568C701.77 221.631 702.952 221.796 704.177 223.063C704.657 225.427 702.257 227.593 702.661 229.022C703.397 231.618 704.789 232.523 703.582 235.41C700.27 237.721 695.952 236.994 693.517 233.692C696.775 231.117 697.264 234.304 700.216 233.037L700.616 231.945C699.8 230.286 699.788 230.677 697.942 229.51C696.963 227.384 700.081 228.585 701.067 225.426C699.968 224.454 696.971 225.247 694.531 224.071L694.481 223.413C695.829 222.077 696.296 222.079 698.096 221.57Z"/><path d="M233.785 567.111C244.347 566.409 237.697 570.361 239.513 576.002C240.209 578.166 240.752 578.524 239.945 580.727C236.439 583.425 232.583 582.313 229.658 579.447C234.124 576.777 233.356 580.721 236.645 578.227L236.783 577.138C235.626 575.311 235.979 575.881 233.584 574.878L233.312 574.137C235.042 572.604 235.502 574.131 237.191 571.658C236.221 568.926 233.102 570.967 231.122 568.962C231.739 567.804 232.554 567.643 233.785 567.111Z"/><path d="M673.953 225.626C678.615 225.539 676.209 225.701 680.036 227.461C682.156 225.675 682.209 225.337 685.005 225.647L685.239 226.369L681.969 230.437C683.333 232.368 684.892 234.331 685.783 236.489C680.403 236.861 682.789 235.329 679.573 233.461C677.701 235.94 677.969 236.694 674.852 236.271L674.442 235.514C675.386 233.89 676.358 232.282 677.358 230.692C675.739 228.67 675.084 227.926 673.953 225.626Z"/><path d="M262.182 225.812C267.072 225.754 264.584 226.232 268.452 227.79C269.144 226.896 269.424 226.594 270.233 225.8C271.653 225.646 271.914 225.427 273.122 226.062C272.903 227.88 271.51 229.179 270.269 230.853C271.89 232.809 273.199 234.377 274.641 236.496C269.383 236.767 271.85 235.928 268.054 233.989L266.407 236.537C265.078 237.056 264.963 236.864 263.506 236.586L263.163 235.804L265.663 230.279C264.566 228.772 263.343 227.276 262.182 225.812Z"/><path d="M677.617 569.021C681.278 569.095 681.496 568.841 683.699 571.592C685.187 570.4 686.397 569.204 688.231 568.718L688.716 569.195C688.667 570.965 687.395 572.408 686.36 573.934C687.555 575.83 688.67 577.318 689.312 579.458L688.737 580.426C685.259 579.698 686.228 579.436 683.656 576.485L681.561 579.678C680.437 580.312 679.821 580.064 678.496 579.924L678.065 579.3C679.369 577.571 680.194 575.729 681.176 573.795C680.1 572.21 678.786 570.56 677.617 569.021Z"/><path d="M261.473 965.919C265.983 965.924 265.025 965.515 267.261 969.29C268.386 968.294 268.776 967.52 269.571 966.27C271.34 965.802 270.513 965.754 272.142 966.248L272.372 967.16L269.747 971.14C271.146 973.25 272.072 975.076 273.244 977.302C269.585 977.233 269.673 976.86 267.334 974.012C265.882 975.916 265.338 976.928 263.06 977.28L262.526 976.399C262.639 974.453 263.93 972.985 265.054 971.327C264.047 969.644 262.587 967.59 261.473 965.919Z"/><path d="M262.233 571.034C267.072 570.765 264.8 571.333 268.374 573.167C269.188 572.057 269.323 571.688 270.494 570.96C272.48 570.934 271.861 570.546 272.924 571.5C272.736 572.877 271.155 574.555 270.214 575.752C271.675 577.795 272.599 578.964 273.695 581.255L273.169 582.317C268.497 581.547 270.762 579.79 267.436 578.43C265.824 580.902 266.021 581.633 263.126 581.694L262.566 581.037C263.397 579.476 264.364 577.899 265.27 576.369C264.353 574.532 263.281 572.8 262.233 571.034Z"/><path d="M679.925 965.995C685.628 966.033 682.677 967.833 685.418 968.538C686.786 966.286 686.419 966.216 688.855 966.009L689.484 966.551C689.39 968.323 688.102 969.884 687.094 971.436C688.268 973.131 690.105 975.195 690.016 977.073L688.603 977.791C686.055 976.459 686.764 975.403 684.582 974.418C683.507 975.853 683.217 976.14 681.915 977.398C680.217 977.764 681.001 977.886 679.49 977C679.764 975.239 681.623 973.092 682.769 971.459C681.519 969.478 680.584 968.258 679.925 965.995Z"/><path d="M235.689 221.814L237.637 222.191C239.133 224.59 239.212 234.278 237.414 236.52C235.258 236.854 236.113 237.111 234.543 236.356C234.609 233.206 234.665 230.658 234.458 227.507C232.99 227.384 232.898 227.367 231.493 226.927L231.124 226.131C231.95 224.266 233.992 223.082 235.689 221.814Z"/><path d="M718.768 961.91C719.087 961.985 719.717 962.32 720.045 962.477C721.027 965.152 720.796 972.496 720.116 975.477C719.728 977.181 719.774 976.741 718.322 977.556C717.048 977.02 717.558 977.443 716.945 976.06C716.983 973.933 717.269 969.199 716.641 967.463C714.826 968.183 715.564 968.303 714.176 967.829C713.183 966.144 713.27 966.975 713.586 965.303C715.138 963.654 716.763 962.984 718.768 961.91Z"/><path d="M287.556 222.466C289.213 222.222 289.129 222.179 290.747 222.536C291.474 224.666 291.57 234.902 290.352 236.719C288.768 236.887 289.577 236.956 287.906 236.1L287.744 234.625C287.743 232.813 288.093 227.769 287.238 226.737C286.174 227.51 285.814 227.884 284.566 228.3C283.524 227.128 283.467 227.235 283.273 225.709C284.7 224.528 286.056 223.553 287.556 222.466Z"/><path d="M652.85 961.932C653.191 961.932 653.987 962.119 654.359 962.192C655.555 964.261 655.893 975.62 654.291 977.466C652.706 977.373 653.477 977.593 652.028 976.446L651.838 974.625C651.821 973.15 651.995 967.404 651.389 966.592C650.313 967.686 650.823 967.47 649.497 967.856L648.639 967.147L648.617 965.898C649.393 963.869 650.961 963.193 652.85 961.932Z"/><path d="M235.454 962.283C236.02 962.309 236.473 962.458 237.037 962.59C238.148 965.371 238.28 974.299 236.636 976.892C234.886 977.38 235.667 977.487 234.194 976.819C234.426 963.505 233.891 970.595 230.236 966.651C230.826 965.16 233.957 963.327 235.454 962.283Z"/><path d="M288.817 961.617L290 962.176C291.161 964.879 290.9 972.92 289.99 975.968C289.671 977.035 289.734 976.686 288.564 977.258L287.491 976.879L287.247 975.892C287.276 973.661 287.544 968.972 286.875 967.13C285.644 967.747 285.446 968.056 284.143 967.889L283.828 966.768C284.506 964.637 286.814 963.313 288.817 961.617Z"/></svg>