<?xml version="1.0" encoding="UTF-8" standalone="no"?>
<!-- Created with Inkscape (http://www.inkscape.org/) -->

<svg
   width="512"
   height="512"
   viewBox="0 0 125.50472 125.50472"
   version="1.1"
   id="svg1"
   xmlns="http://www.w3.org/2000/svg"
   xmlns:svg="http://www.w3.org/2000/svg">
  <defs
     id="defs1" />
  <g
     id="layer1">
    <path
       fill="#2c63ee"
       d="m 0.07652391,50.398375 c 0.55948514,0.393771 1.78757459,1.642465 2.76850359,2.359808 3.8018702,2.779804 8.3444515,3.565733 12.9005275,4.03697 9.159194,0.946504 18.508095,1.094169 27.708546,1.205523 12.771357,0.135149 25.54387,0.08311 38.313684,-0.155733 7.351185,-0.107717 14.699283,-0.388528 22.038515,-0.842012 6.43735,-0.374405 12.49451,0.11095 17.67369,-4.268955 l 0.022,22.938427 -18.57364,-0.0056 c -6.018216,0 -12.39464,-1.001375 -17.124615,3.587521 -2.932376,2.84476 -4.458137,6.310841 -4.497081,10.500317 -0.0428,3.934089 1.437461,7.718495 4.10417,10.491839 3.432095,3.60607 6.81522,3.92723 11.367827,3.95829 l 24.705219,0.14608 c 0.0362,5.93805 1.14095,13.07638 -3.00332,17.62735 -3.86048,4.2391 -9.18734,3.35232 -14.29751,3.34948 l -13.521315,-0.0153 -39.881859,0.0107 -27.171041,0.0107 c -3.562808,0.003 -7.146053,0.0198 -10.699992,0 -3.7293814,-0.021 -6.2337584,-0.14075 -9.1665205,-2.88995 -4.25493392,-3.98936 -3.73208024,-8.41808 -3.71203029,-13.79977 L 0.07190271,97.431203 0.08312416,69.694487 C 0.0993151,63.366296 0.22809938,56.702029 0.07656617,50.398046 Z"
       id="path2"
       style="stroke-width:0.394418" />
    <path
       fill="#f8bb39"
       d="m 24.649106,26.358515 c 6.866117,-2.909717 16.155639,-5.963063 23.278941,-8.551226 L 97.228214,0 c 1.15984,2.7188824 1.989234,5.7020277 2.959366,8.5108822 2.07021,5.9937248 3.90868,12.1282568 6.09765,18.0723568 5.4059,1.207945 5.55744,4.660712 5.56515,9.528798 7.98547,0.930771 9.68513,6.707842 9.61303,13.911932 -3.31527,3.635532 -4.77509,3.886885 -9.48887,4.354489 -1.47911,0.157751 -3.28866,0.349392 -4.77586,0.351409 C 89.905178,55.856312 71.246705,55.979366 53.830972,55.935793 41.728992,55.90554 25.25833,55.972512 13.464818,54.449063 12.137247,54.269525 10.094803,53.933447 8.8466621,53.594949 5.8036237,52.434612 0.80952171,50.36852 0.19297189,46.508666 -0.32448385,43.26731 1.8972586,39.725782 4.4074182,37.997786 5.9682685,36.923385 6.9966235,36.525982 8.8119601,36.26293 8.7622214,26.292349 12.159226,26.304856 20.539922,26.63811 c 1.151745,0.04599 2.985202,-0.04479 4.109184,-0.279595 z"
       id="path3"
       style="stroke-width:0.394418" />
    <path
       fill="#e45542"
       d="m 13.464818,54.449063 c 0.04473,-1.880908 0.0536,-3.76262 0.02699,-5.643528 -0.03933,-3.807806 -0.400623,-6.621905 2.514402,-9.540094 0.846359,-0.847255 2.024708,-1.827651 3.212696,-1.900273 3.221951,-0.198096 6.73926,-0.07545 9.961983,-0.04922 l 18.609889,0.06092 34.204886,0.02017 c 6.1096,-0.0052 12.221898,-0.05447 18.329566,0.01532 2.12959,0.02461 3.53274,0.937629 4.96634,2.520382 2.16892,2.394102 1.81148,5.830327 1.8485,8.851398 0.0243,2.009609 0.008,3.963541 0.0586,5.945715 -17.293498,1.126445 -35.951971,1.249499 -53.367703,1.205926 -12.10198,-0.03025 -28.572643,0.03672 -40.366155,-1.48673 z"
       id="path4"
       style="stroke-width:0.394418" />
    <path
       fill="#f8815e"
       d="m 24.546925,42.691579 c 2.456565,-0.580168 4.901946,1.015497 5.484951,3.578645 0.582621,2.563553 -0.913451,5.14042 -3.35652,5.780299 -1.605577,0.4204 -3.303309,-0.09482 -4.445027,-1.348749 -1.141719,-1.253938 -1.550823,-3.053348 -1.071541,-4.711144 0.479667,-1.657796 1.773692,-2.917785 3.388137,-3.299051 z"
       id="path5"
       style="stroke-width:0.394418" />
    <path
       fill="#f8815e"
       d="m 35.196406,42.787199 c 2.403739,-0.627374 4.842566,0.885583 5.470299,3.393459 0.627347,2.507875 -0.790064,5.077077 -3.179152,5.762949 -1.570487,0.451062 -3.25164,-0.01655 -4.40107,-1.223678 -1.14943,-1.207137 -1.590153,-2.967815 -1.153285,-4.609473 0.436482,-1.641657 1.68308,-2.910926 3.263208,-3.323257 z"
       id="path6"
       style="stroke-width:0.394418" />
    <path
       fill="#5cb072"
       d="m 24.649106,26.358515 c 6.866117,-2.909717 16.155639,-5.963063 23.278941,-8.551226 L 97.228214,0 c 1.15984,2.7188824 1.989234,5.7020277 2.959366,8.5108822 2.07021,5.9937248 3.90868,12.1282568 6.09765,18.0723568 -1.96842,-0.117003 -4.68679,-0.05486 -6.696849,-0.06374 l -2.570311,0.03873 c -8.536474,-0.271524 -17.909281,0.0085 -26.572611,-0.07827 l -2.238324,-0.01006 c -8.591226,0.300574 -18.842012,0.01128 -27.566264,0.01534 l -9.939618,0.02501 c -1.697733,0.0044 -4.429219,0.08835 -6.052147,-0.151694 z"
       id="path7"
       style="stroke-width:0.394418" />
    <path
       fill="#5cb072"
       d="m 70.445459,26.479955 c 0.706777,-3.945384 2.565684,-7.264205 5.768741,-9.564705 2.874153,-2.072145 6.416139,-2.868967 9.850548,-2.216178 6.460867,1.270883 9.297619,5.66249 10.953322,11.859153 -8.536474,-0.271524 -17.909281,0.0085 -26.572611,-0.07827 z"
       id="path8"
       style="stroke-width:0.394418" />
    <path
       fill="#ffffff"
       d="m 68.207135,26.469868 c 0.821298,-4.901976 2.546406,-8.622638 6.555722,-11.55293 3.391608,-2.496174 7.596802,-3.467694 11.677451,-2.697498 4.194782,0.795612 7.911826,3.311557 10.325204,6.989048 1.488358,2.269836 2.284206,4.632872 2.822869,7.311006 l -2.570311,0.03873 c -1.655703,-6.196663 -4.492455,-10.58827 -10.953322,-11.859153 -3.434409,-0.652789 -6.976395,0.14404 -9.850548,2.216178 -3.203057,2.3005 -5.061964,5.619321 -5.768741,9.564705 z"
       id="path9"
       style="stroke-width:0.394418" />
    <path
       fill="#2c63ee"
       d="m 111.85038,36.112037 c 7.98547,0.930771 9.68513,6.707842 9.61303,13.911932 -3.31527,3.635532 -4.77509,3.886885 -9.48887,4.354489 0.0347,-6.034475 -0.12185,-12.194021 -0.12417,-18.266421 z"
       id="path10"
       style="stroke-width:0.394418" />
    <path
       fill="#2c63ee"
       d="M 8.8466621,53.594949 C 5.8036237,52.434612 0.80952171,50.36852 0.19297189,46.508666 -0.32448385,43.26731 1.8972586,39.725782 4.4074182,37.997786 5.9682685,36.923385 6.9966235,36.525982 8.8119601,36.26293 c -0.1033393,5.6988 -7.709e-4,11.615466 0.034699,17.332019 z"
       id="path11"
       style="stroke-width:0.394418" />
    <path
       fill="#2c63ee"
       d="m 93.937243,78.192786 c 5.917577,-0.267894 12.126657,0.12911 18.072767,-0.0355 3.36076,0.156944 6.96869,-0.275561 10.29937,0.206972 3.19342,0.46236 3.30755,3.785214 3.25357,6.292283 -0.12262,4.564689 0.39368,9.667586 -0.15963,14.157634 -0.45885,3.724695 -7.06855,2.874215 -9.51895,2.826605 l -14.34801,-0.0468 c -4.601962,-0.007 -9.581797,0.6318 -13.442662,-2.45139 -2.403353,-1.91157 -3.960732,-4.763592 -4.313543,-7.900857 -0.778111,-6.614644 3.948393,-12.304568 10.157088,-13.048942 z"
       id="path43"
       style="stroke-width:0.394418" />
  </g>
</svg>
